<?xml version="1.0" standalone="no"?>
<!DOCTYPE svg PUBLIC "-//W3C//DTD SVG 20010904//EN"
 "http://www.w3.org/TR/2001/REC-SVG-20010904/DTD/svg10.dtd">
<svg version="1.0" xmlns="http://www.w3.org/2000/svg"
 width="500.000000pt" height="500.000000pt" viewBox="0 0 500.000000 500.000000"
 preserveAspectRatio="xMidYMid meet">
<metadata>
Created by potrace 1.14, written by Peter Selinger 2001-2017
</metadata>
<g transform="translate(0.000000,500.000000) scale(0.100000,-0.100000)"
fill="#000000" stroke="none">
<path d="M3460 3904 c-161 -30 -214 -43 -333 -81 -197 -65 -382 -161 -667
-350 -552 -364 -697 -419 -939 -353 -84 22 -189 79 -309 168 -41 29 -77 51
-80 47 -4 -3 11 -41 33 -83 57 -112 191 -245 302 -300 107 -53 172 -66 303
-60 87 4 124 11 213 41 146 50 379 169 637 328 335 206 523 293 755 347 94 22
133 26 270 26 147 0 167 -2 241 -27 153 -51 248 -132 323 -275 101 -195 137
-479 86 -677 -48 -186 -181 -364 -368 -493 -82 -57 -263 -148 -314 -158 l-31
-6 -4 118 c-4 107 -7 126 -35 186 -41 89 -112 159 -183 183 -43 14 -75 17
-179 12 -144 -6 -235 -23 -551 -107 -274 -73 -334 -85 -475 -101 -245 -26
-497 17 -735 127 -89 41 -93 42 -60 15 143 -121 409 -225 643 -252 198 -23
345 -8 862 86 111 20 252 39 316 42 l115 6 35 -31 c49 -43 83 -112 107 -217
44 -189 54 -292 59 -602 5 -284 14 -367 26 -256 28 260 47 451 53 516 5 73 7
77 32 83 169 37 388 136 521 234 293 216 441 500 441 851 0 364 -141 695 -363
853 -85 60 -170 101 -274 132 -78 24 -107 27 -268 30 -99 1 -191 0 -205 -2z"/>
<path d="M1095 3893 c-141 -19 -326 -120 -430 -235 -97 -107 -157 -225 -198
-388 -29 -116 -31 -374 -3 -500 75 -345 255 -598 574 -808 l115 -75 -7 -116
c-9 -138 -26 -275 -64 -509 -16 -94 -27 -172 -25 -172 2 0 98 31 213 69 239
80 478 142 632 165 268 40 597 40 873 1 117 -16 344 -61 382 -76 58 -22 42 -6
-21 22 -363 157 -859 241 -1242 210 -194 -16 -466 -68 -580 -111 l-27 -11 6
68 c4 37 7 91 7 119 l0 51 108 32 c135 39 290 74 457 103 173 29 513 32 680 5
208 -33 480 -114 618 -184 27 -13 53 -23 58 -21 14 5 -186 108 -291 151 -292
120 -676 189 -950 173 -196 -12 -534 -62 -647 -95 -38 -11 -35 -18 -53 124
-26 212 -136 582 -222 745 -21 41 -36 66 -33 55 39 -126 105 -474 105 -558 0
-37 -13 -30 -117 68 -188 174 -295 370 -333 607 -16 100 -8 341 15 423 61 221
193 353 435 436 215 73 604 0 830 -154 l44 -31 -21 30 c-61 85 -198 191 -339
262 -200 101 -396 145 -549 125z"/>
</g>
</svg>
